<?xml version="1.0" standalone="no"?>
<!DOCTYPE svg PUBLIC "-//W3C//DTD SVG 20010904//EN"
 "http://www.w3.org/TR/2001/REC-SVG-20010904/DTD/svg10.dtd">
<svg version="1.0" xmlns="http://www.w3.org/2000/svg"
 width="256.000000pt" height="256.000000pt" viewBox="0 0 256.000000 256.000000"
 preserveAspectRatio="xMidYMid meet">
<metadata>
Created by potrace 1.11, written by Peter Selinger 2001-2013
</metadata>
<g transform="translate(0.000000,256.000000) scale(0.100000,-0.100000)"
fill="#000000" stroke="none">
<path d="M1188 2495 c-2 -2 -25 -6 -53 -9 -84 -9 -227 -48 -252 -69 -7 -5 -13
-7 -13 -4 0 3 -27 -10 -61 -29 -33 -18 -63 -34 -65 -34 -4 0 -63 -40 -88 -60
-68 -54 -177 -177 -214 -243 -97 -170 -119 -292 -98 -551 3 -26 -3 -67 -18
-123 -14 -55 -16 -72 -17 -148 0 -81 4 -140 15 -185 3 -14 8 -38 12 -55 3 -16
15 -48 25 -71 17 -39 22 -68 35 -239 3 -44 7 -96 9 -115 2 -19 7 -78 11 -130
3 -52 8 -106 9 -120 2 -14 3 -42 4 -62 l1 -37 274 0 274 0 73 -34 c41 -20 94
-41 118 -47 43 -11 184 -15 200 -6 4 3 19 7 33 10 14 2 61 21 104 41 l79 36
271 0 c203 0 271 3 271 12 0 12 10 125 18 212 3 28 8 82 10 120 3 39 8 99 11
135 3 36 7 90 8 120 2 30 12 75 23 100 25 57 45 138 38 151 -4 5 -2 9 2 9 22
0 18 241 -5 316 -14 45 -18 79 -14 130 7 94 6 231 -2 274 -42 222 -203 448
-398 559 -21 11 -54 30 -73 41 -19 11 -36 20 -38 19 -1 0 -18 6 -37 15 -58 24
-155 49 -235 62 -34 5 -243 13 -247 9z"/>
</g>
</svg>
